<?xml version="1.0" encoding="UTF-8"?>
<svg id="Layer_2" data-name="Layer 2" xmlns="http://www.w3.org/2000/svg" viewBox="0 0 122.93 55.23">
  <defs>
    <style>
      .cls-1 {
        fill: #848484;
      }
    </style>
  </defs>
  <g id="Layer_2-2" data-name="Layer 2">
    <g id="uuid-c779e4d7-80ca-4d3a-9884-d535dc48349b">
      <g>
        <path class="cls-1" d="M57.34,42.54l-3.28,10.29-3.95-10.22h-1.01l4.75,12.54h.45l3.39-11.05,3.43,11.05h.45l4.73-12.54h-1.03l-3.88,10.22-3.33-10.26h-.71l-.02-.02h0ZM70.39,42.59v12.45h6.03v-.8h-5.07v-11.65h-.96ZM78.18,42.59v12.45h6.03v-.8h-5.07v-11.65h-.96ZM85.86,55.04h.96v-12.45h-.96v12.45ZM67.69,55.04h.96v-12.45h-.96v12.45ZM93.28,42.52l-5.09,12.52h.89l1.74-4.3h5.38l1.74,4.3h.89l-5.09-12.52h-.47.01ZM93.49,44.07l2.37,5.85h-4.73l2.37-5.85h-.01ZM110.45,42.61l-4.69,5.78-4.69-5.78h-.96v12.43h.96v-11.03h.05l4.65,5.8,4.65-5.8h.05v11.03h.96v-12.43h-.98ZM119.29,44.61c-.78-1.03-1.88-1.25-2.72-1.25-1.48,0-2.59,1.03-2.59,2.37,0,3.31,5.85,1.72,5.85,6.09,0,1.92-1.57,3.41-3.57,3.41-1.01,0-2.07-.26-3.15-1.1v-1.13c1.2,1.13,2.14,1.34,3.1,1.34,1.45,0,2.59-1.08,2.59-2.48,0-3.52-5.85-1.99-5.85-6.09,0-1.83,1.58-3.31,3.52-3.31.98,0,2.25.4,2.81,1.1v1.05h.01ZM18.35,42.62v12.45h6.32v-1.6h-4.55v-10.85h-1.77ZM25.8,42.62v12.45h6.32v-1.6h-4.55v-10.85h-1.77ZM33.28,42.62v12.45h7.14v-1.6h-5.38v-3.86h5.05v-1.6h-5.05v-3.75h5.22v-1.6h-6.99v-.02h0v-.02ZM49.51,55.06l-2.28-5.8c1.36-1.13,1.52-1.9,1.5-3.15,0-2.14-1.54-3.48-4.04-3.48h-3.1v12.45h1.76v-5.56h2.09l2.23,5.56h1.83v-.02h.01ZM43.34,48.05v-3.9h1.13c1.72,0,2.41.71,2.41,1.88,0,1.05-.51,2.03-2.41,2.03h-1.13ZM10.07,42.62v12.43h7.12v-1.6h-5.36v-3.86h5.02v-1.6h-5.02v-3.75h5.2v-1.6h-6.97v-.02ZM1.77,48.3v-5.66H0v12.4h1.76v-4.27l1.97-2.19,2.56,6.43h1.83l-.65-1.6-2.5-6.22,2.68-2.96,1.45-1.6h-2.19l-.63.69-4.53,4.98M121.76,55.04c-.16,0-.32-.03-.46-.09s-.27-.14-.37-.25c-.11-.11-.19-.23-.25-.37s-.09-.3-.09-.46.03-.32.09-.46.14-.26.25-.37.23-.19.37-.25.3-.09.46-.09.32.03.46.09.27.14.37.25.19.23.25.37.09.29.09.46-.03.32-.09.46-.14.27-.25.37c-.11.11-.23.19-.37.25s-.29.09-.46.09ZM121.76,54.89c.14,0,.28-.03.4-.08s.23-.12.32-.22c.09-.09.16-.2.21-.32.05-.12.08-.26.08-.4s-.03-.28-.08-.4c-.05-.12-.12-.23-.21-.32s-.2-.16-.32-.21-.26-.08-.4-.08-.28.03-.4.08c-.12.05-.23.12-.32.21s-.16.2-.21.32c-.05.12-.08.26-.08.4s.03.28.08.4c.05.12.12.23.21.32s.2.16.32.22c.12.05.26.08.4.08ZM121.29,54.55v-1.36h.57c.15,0,.26.04.34.11s.12.17.12.29-.04.22-.12.28c-.08.07-.19.1-.33.1l.05-.03c.07,0,.12.02.17.05s.08.09.11.17l.15.4h-.24l-.15-.42s-.05-.09-.09-.11c-.04-.02-.08-.03-.14-.03h-.23l.05-.03v.58h-.26ZM121.52,53.82h.3c.09,0,.15-.02.2-.05s.06-.09.06-.17-.02-.13-.06-.17-.11-.05-.2-.05h-.3v.45h0Z"/>
        <path class="cls-1" d="M0,0v37.65h5.2v-8.83l3.82-3.83,5.29,12.65h5.26l-6.99-16.81,4.91-5.51,9.53,22.3h2.01l7.14-17.25,7.25,17.25h1.97l10.89-25.38h-5.33l-6.54,15.4-6.36-15.4h-3.68l-6.41,15.4-6.58-15.4h-6.9l-9.26,9.35V0H0Z"/>
      </g>
    </g>
  </g>
</svg>